<svg xmlns="http://www.w3.org/2000/svg" viewBox="0 0 512 512">
  <defs>
    <linearGradient id="bg" x1="0%" y1="0%" x2="100%" y2="100%">
      <stop offset="0%" stop-color="#ffd9ea"/>
      <stop offset="55%" stop-color="#ffc7df"/>
      <stop offset="100%" stop-color="#ffe8d8"/>
    </linearGradient>
    <linearGradient id="star" x1="0%" y1="0%" x2="100%" y2="100%">
      <stop offset="0%" stop-color="#fff3ba"/>
      <stop offset="100%" stop-color="#ffcf65"/>
    </linearGradient>
  </defs>
  <rect width="512" height="512" rx="132" fill="url(#bg)"/>
  <circle cx="256" cy="256" r="170" fill="#fffafc" opacity="0.9"/>
  <circle cx="256" cy="256" r="150" fill="none" stroke="#ff8fc7" stroke-width="18" opacity="0.4"/>
  <path d="M256 96 304 196l111 16-80 78 19 110-98-52-98 52 19-110-80-78 111-16 48-100Z" fill="url(#star)" stroke="#f7a5bf" stroke-width="18" stroke-linejoin="round"/>
  <path d="M172 133c24 18 51 27 84 27 33 0 60-9 84-27" fill="none" stroke="#ff8fc7" stroke-linecap="round" stroke-width="20"/>
  <circle cx="156" cy="170" r="18" fill="#fffafc" opacity="0.9"/>
  <circle cx="356" cy="164" r="14" fill="#fffafc" opacity="0.9"/>
  <circle cx="384" cy="214" r="10" fill="#fffafc" opacity="0.85"/>
</svg>
